<svg width="70" height="70" viewBox="0 0 70 70" fill="none" xmlns="http://www.w3.org/2000/svg">
<path d="M46.6667 64.1667V52.8792C46.7761 51.4884 46.5882 50.0903 46.1155 48.7777C45.6428 47.4652 44.8961 46.2683 43.925 45.2667C53.0834 44.2458 62.7084 40.775 62.7084 24.85C62.7076 20.7778 61.1412 16.8618 58.3334 13.9125C59.663 10.3498 59.5689 6.41186 58.0709 2.91668C58.0709 2.91668 54.6292 1.89584 46.6667 7.23335C39.9817 5.42158 32.935 5.42158 26.25 7.23335C18.2875 1.89584 14.8459 2.91668 14.8459 2.91668C13.3478 6.41186 13.2538 10.3498 14.5834 13.9125C11.7546 16.8837 10.1866 20.8351 10.2084 24.9375C10.2084 40.7458 19.8334 44.2167 28.9917 45.3542C28.0321 46.3458 27.2921 47.5283 26.8197 48.8248C26.3473 50.1213 26.1532 51.5027 26.25 52.8792V64.1667M26.25 55.4167C11.6667 59.7917 11.6667 48.125 5.83337 46.6667L26.25 55.4167Z" stroke="#F2545B" stroke-width="2.66667" stroke-linecap="round" stroke-linejoin="round"/>
</svg>
