<svg width="70" height="70" viewBox="0 0 70 70" fill="none" xmlns="http://www.w3.org/2000/svg">
<path d="M46.6666 23.3333C51.3079 23.3333 55.7591 25.1771 59.041 28.4589C62.3229 31.7408 64.1666 36.192 64.1666 40.8333V61.25H52.5V40.8333C52.5 39.2862 51.8854 37.8025 50.7914 36.7085C49.6975 35.6146 48.2137 35 46.6666 35C45.1195 35 43.6358 35.6146 42.5418 36.7085C41.4479 37.8025 40.8333 39.2862 40.8333 40.8333V61.25H29.1666V40.8333C29.1666 36.192 31.0104 31.7408 34.2923 28.4589C37.5741 25.1771 42.0253 23.3333 46.6666 23.3333V23.3333Z" stroke="#F2545B" stroke-width="2.66667" stroke-linecap="round" stroke-linejoin="round"/>
<path d="M17.5 26.25H5.83337V61.25H17.5V26.25Z" stroke="#F2545B" stroke-width="2.66667" stroke-linecap="round" stroke-linejoin="round"/>
<path d="M11.6667 17.5C14.8884 17.5 17.5 14.8883 17.5 11.6667C17.5 8.44502 14.8884 5.83334 11.6667 5.83334C8.44505 5.83334 5.83337 8.44502 5.83337 11.6667C5.83337 14.8883 8.44505 17.5 11.6667 17.5Z" stroke="#F2545B" stroke-width="2.66667" stroke-linecap="round" stroke-linejoin="round"/>
</svg>
